<!DOCTYPE svg PUBLIC "-//W3C//DTD SVG 1.1//EN" "http://www.w3.org/Graphics/SVG/1.1/DTD/svg11.dtd">

<!-- Uploaded to: SVG Repo, www.svgrepo.com, Transformed by: SVG Repo Mixer Tools -->
<svg fill="#ffffff" height="800px" width="800px" version="1.1" id="Layer_1" xmlns="http://www.w3.org/2000/svg" xmlns:xlink="http://www.w3.org/1999/xlink" viewBox="0 0 128 128" xml:space="preserve" stroke="#ffffff">

<g id="SVGRepo_bgCarrier" stroke-width="0"/>

<g id="SVGRepo_tracerCarrier" stroke-linecap="round" stroke-linejoin="round"/>

<g id="SVGRepo_iconCarrier"> <polygon points="74.1,51.5 4.3,18.4 4.3,11.8 76.4,46.3 "/> <path d="M50.2,87.9h30.5v27.2c0,4.5,3.6,8.1,8.1,8.1c4.5,0,8.1-3.6,8.1-8.1V87.9c2.4,0,2.7-1.6,2.7-3.4V64.2L74,51.7H19.8l-7-4 c-2.2-1.3-5.1-0.5-6.4,1.8c-1.3,2.2-0.5,5.1,1.8,6.4l11,6.3v53c0,4.5,3.6,8.1,8.1,8.1c4.5,0,8.1-3.6,8.1-8.1l0-20.7L50,119.1 c2.3,3.8,7.2,5.1,11.1,2.8c3.8-2.3,5-7.3,2.8-11.1L50.2,87.9z"/> <polygon points="76.5,46.2 99.5,57.1 99.5,52.8 118.2,52.8 125,38 76.5,14.9 "/> </g>

</svg>